HIERARCHY
ROOT Hips
{
 OFFSET 0.000000 0.000000 0.000000
 CHANNELS 6 Xposition Yposition Zposition Yrotation Xrotation Zrotation
 JOINT Chest
 {
  OFFSET 0.000000 9.585900 0.002600
  CHANNELS 3 Yrotation Xrotation Zrotation
  JOINT Chest2
  {
   OFFSET 0.000000 9.601200 -0.005300
   CHANNELS 3 Yrotation Xrotation Zrotation
   JOINT Chest3
   {
    OFFSET 0.000000 9.561800 0.000000
    CHANNELS 3 Yrotation Xrotation Zrotation
    JOINT Chest4
    {
     OFFSET 0.000000 9.552100 0.000000
     CHANNELS 3 Yrotation Xrotation Zrotation
     JOINT Neck
     {
      OFFSET 0.000000 14.453000 0.000000
      CHANNELS 3 Yrotation Xrotation Zrotation
      JOINT Head
      {
       OFFSET 0.000000 8.936500 -0.011300
       CHANNELS 3 Yrotation Xrotation Zrotation
       End Site
       {
        OFFSET 0.000000 17.073600 -0.006000
       }
      }
     }
     JOINT RightCollar
     {
      OFFSET -2.921100 9.558500 0.000000
      CHANNELS 3 Yrotation Xrotation Zrotation
      JOINT RightShoulder
      {
       OFFSET -13.519700 0.000000 0.000000
       CHANNELS 3 Yrotation Xrotation Zrotation
       JOINT RightElbow
       {
        OFFSET 0.000000 -29.696600 0.000000
        CHANNELS 3 Yrotation Xrotation Zrotation
        JOINT RightWrist
        {
         OFFSET 0.000000 -24.004700 0.000000
         CHANNELS 3 Yrotation Xrotation Zrotation
         End Site
         {
          OFFSET 0.000000 -17.728500 0.000000
         }
        }
       }
      }
     }
     JOINT LeftCollar
     {
      OFFSET 2.921100 9.558500 0.000000
      CHANNELS 3 Yrotation Xrotation Zrotation
      JOINT LeftShoulder
      {
       OFFSET 13.519700 0.000000 0.000000
       CHANNELS 3 Yrotation Xrotation Zrotation
       JOINT LeftElbow
       {
        OFFSET 0.000000 -29.696600 0.000000
        CHANNELS 3 Yrotation Xrotation Zrotation
        JOINT LeftWrist
        {
         OFFSET 0.000000 -24.004700 0.000000
         CHANNELS 3 Yrotation Xrotation Zrotation
         End Site
         {
          OFFSET 0.000000 -17.728500 0.000000
         }
        }
       }
      }
     }
    }
   }
  }
 }
 JOINT RightHip
 {
  OFFSET -7.771700 -0.012900 -0.001300
  CHANNELS 3 Yrotation Xrotation Zrotation
  JOINT RightKnee
  {
   OFFSET 0.000000 -40.869800 0.001200
   CHANNELS 3 Yrotation Xrotation Zrotation
   JOINT RightAnkle
   {
    OFFSET 0.000000 -39.717900 0.002100
    CHANNELS 3 Yrotation Xrotation Zrotation
    JOINT RightToe
    {
     OFFSET 0.000000 -4.965400 11.033500
     CHANNELS 3 Yrotation Xrotation Zrotation
     End Site
     {
      OFFSET 0.000000 -1.423100 5.872300
     }
    }
   }
  }
 }
 JOINT LeftHip
 {
  OFFSET 7.771700 -0.012900 -0.001300
  CHANNELS 3 Yrotation Xrotation Zrotation
  JOINT LeftKnee
  {
   OFFSET 0.000000 -40.869800 0.001200
   CHANNELS 3 Yrotation Xrotation Zrotation
   JOINT LeftAnkle
   {
    OFFSET 0.000000 -39.717900 0.002100
    CHANNELS 3 Yrotation Xrotation Zrotation
    JOINT LeftToe
    {
     OFFSET 0.000000 -4.965400 11.033500
     CHANNELS 3 Yrotation Xrotation Zrotation
     End Site
     {
      OFFSET 0.000000 -1.423100 5.872300
     }
    }
   }
  }
 }
}
MOTION
Frames: 8
Frame Time: 0.008333
-191.306878 57.408122 -60.356406 156.718651 -12.850470 0.502554 4.831966 8.064078 0.929514 0.259838 0.477436 -0.001525 0.436806 0.782864 -0.018901 4.250254 7.658120 0.139631 1.000269 19.283613 -1.040344 2.158160 0.056725 -2.205988 0.556170 9.504223 0.218268 -6.812858 -7.950303 -7.056550 -128.685030 -81.554974 151.928263 -2.146957 3.537632 -23.896504 -4.769917 10.852711 -1.336030 23.896305 -5.868965 1.448082 137.630426 -77.390273 -162.353023 -2.930919 8.531986 12.713536 -13.207526 -59.240361 7.507290 -28.914166 71.167939 -29.405117 -2.448873 -5.211474 -2.149899 -0.381378 0.834702 -0.133635 1.258266 -61.842088 17.806998 40.451393 66.202163 33.653862 -16.424599 -8.819716 4.006625 -0.196284 -1.112434 -0.116424
-191.297095 57.404789 -60.365575 156.706829 -12.838094 0.504262 4.841348 8.043338 0.926066 0.256682 0.470516 -0.004738 0.436958 0.776664 -0.020551 4.243623 7.650672 0.132046 0.970561 19.217911 -1.051364 2.108761 -0.065873 -2.218376 0.582127 9.467740 0.237021 -6.828478 -7.953171 -7.040690 -128.137183 -81.661415 151.307295 -2.171587 3.530941 -23.933799 -4.784045 10.811024 -1.346508 23.951243 -5.838476 1.370084 137.516799 -77.466466 -162.248782 -2.902353 8.536710 12.770705 -13.204534 -59.261066 7.528253 -28.975516 71.182333 -29.473303 -2.449720 -5.206910 -2.152627 -0.378048 0.817417 -0.131950 1.251171 -61.849136 17.825279 40.469066 66.207718 33.675049 -16.419553 -8.824186 3.998280 -0.190259 -1.113987 -0.116052
-191.287477 57.401528 -60.376635 156.692891 -12.826774 0.512763 4.852247 8.023165 0.916280 0.252716 0.442124 -0.014950 0.438557 0.789111 -0.015651 4.231603 7.633573 0.120156 0.957908 19.190126 -1.051415 2.049542 -0.191990 -2.234361 0.607933 9.476218 0.259709 -6.834752 -7.990286 -7.013212 -127.577200 -81.761844 150.678767 -2.196863 3.543695 -24.000965 -4.790961 10.715312 -1.377999 23.968579 -5.770956 1.366656 137.603288 -77.556361 -162.327828 -2.856035 8.540058 12.864920 -13.192358 -59.280078 7.537432 -29.023895 71.197273 -29.529544 -2.454715 -5.208943 -2.151538 -0.361489 0.809439 -0.142311 1.259058 -61.855450 17.830518 40.496127 66.215029 33.706703 -16.432432 -8.827812 3.992260 -0.186190 -1.110971 -0.114885
-191.275090 57.400464 -60.397805 156.718775 -12.872387 0.521774 4.821376 8.023397 0.890501 0.255276 0.482415 -0.002688 0.437124 0.781639 -0.017784 4.219509 7.607207 0.108689 0.965149 19.206383 -1.042602 1.966862 -0.338797 -2.257651 0.631160 9.481490 0.278534 -6.839154 -8.010907 -6.992838 -127.024029 -81.843131 150.052245 -2.225124 3.564007 -24.083105 -4.785037 10.647190 -1.401481 23.958953 -5.735301 1.356832 137.496835 -77.618249 -162.157010 -2.893991 8.550388 12.887939 -13.184617 -59.244635 7.502458 -29.129912 71.232836 -29.646307 -2.442673 -5.242845 -2.146960 -0.368687 0.804795 -0.143063 1.180950 -61.792626 17.880681 40.536512 66.231278 33.721595 -16.467671 -8.829291 3.982853 -0.150269 -1.111260 -0.107487
-191.260951 57.398667 -60.415165 156.654947 -12.895202 0.532421 4.880691 8.020430 0.891108 0.256009 0.483723 -0.005142 0.437645 0.792573 -0.014402 4.214435 7.599941 0.105801 0.892365 19.085970 -1.081691 1.953702 -0.339049 -2.259914 0.650442 9.375594 0.295883 -6.846284 -7.904623 -7.007484 -126.574581 -81.882555 149.528119 -2.260324 3.589579 -24.180472 -4.781183 10.578451 -1.425532 23.935949 -5.724078 1.334318 137.549867 -77.682229 -162.123515 -2.925040 8.577153 12.845320 -13.124178 -59.226246 7.510379 -29.172281 71.243913 -29.692903 -2.445761 -5.235433 -2.153468 -0.366667 0.790601 -0.141520 1.202842 -61.761824 17.921119 40.591301 66.259404 33.792017 -16.490999 -8.864705 3.956558 -0.149115 -1.083889 -0.096747
-191.251974 57.396107 -60.430698 156.676392 -12.893721 0.547930 4.853119 7.993802 0.866820 0.254130 0.481893 -0.006230 0.435638 0.789548 -0.015114 4.213264 7.609462 0.105852 0.845611 19.020371 -1.106394 1.917769 -0.363234 -2.271103 0.664144 9.306072 0.304116 -6.836253 -7.890182 -6.984976 -126.096132 -81.966698 149.006695 -2.324419 3.631428 -24.328507 -4.772871 10.555540 -1.435975 23.901019 -5.756492 1.281325 137.915146 -77.681532 -162.337948 -2.951928 8.640343 12.917759 -13.096230 -59.245591 7.459372 -29.240984 71.282202 -29.753079 -2.450793 -5.245224 -2.155768 -0.364537 0.772182 -0.138883 1.191391 -61.753539 17.907891 40.605565 66.267603 33.798731 -16.499131 -8.864010 3.954502 -0.135953 -1.091951 -0.098858
-191.241661 57.393616 -60.445157 156.692471 -12.889593 0.554035 4.832927 7.965294 0.853797 0.249880 0.457288 -0.009105 0.437837 0.807521 -0.014023 4.207511 7.595582 0.098927 0.818436 19.004632 -1.116208 1.865064 -0.391286 -2.287083 0.675263 9.283094 0.318908 -6.807755 -7.974901 -6.943036 -124.950301 -82.110082 147.759807 -2.354419 3.640988 -24.422228 -4.763059 10.556889 -1.442450 23.859522 -5.797620 1.226443 138.293937 -77.702931 -162.598338 -2.957766 8.709614 12.919762 -13.089184 -59.255785 7.435399 -29.280739 71.310562 -29.787068 -2.451406 -5.266860 -2.160257 -0.358850 0.774795 -0.140940 1.169921 -61.749385 17.913022 40.613417 66.278143 33.802464 -16.497348 -8.866823 3.953874 -0.158303 -1.082927 -0.103400
-191.223741 57.393949 -60.468447 156.664110 -12.955958 0.547738 4.861222 8.018746 0.870883 0.249725 0.445770 -0.010299 0.431751 0.773956 -0.016884 4.206230 7.605148 0.099091 0.799870 19.009141 -1.123682 1.796738 -0.423456 -2.306741 0.682534 9.265151 0.330990 -6.803501 -7.984070 -6.936715 -124.125183 -82.158732 146.860937 -2.379120 3.646513 -24.513153 -4.761159 10.516837 -1.466616 23.819744 -5.812324 1.199277 138.599855 -77.736996 -162.812076 -2.976168 8.717395 12.985861 -13.046262 -59.192157 7.420295 -29.348821 71.344783 -29.846542 -2.440039 -5.285726 -2.160294 -0.363398 0.766457 -0.146872 1.150619 -61.679098 17.959671 40.672957 66.304152 33.896124 -16.524918 -8.906301 3.914808 -0.132949 -1.066925 -0.092253
